<?xml version="1.0" standalone="no"?><!-- Generator: Gravit.io --><svg xmlns="http://www.w3.org/2000/svg" xmlns:xlink="http://www.w3.org/1999/xlink" style="isolation:isolate" viewBox="-91.5 -60 323.5 378" width="323.5" height="378"><defs><clipPath id="_clipPath_H5qc5hbnSIYtUe7wfwM4JBIDvs80LEn9"><rect x="-91.5" y="-60" width="323.5" height="378"/></clipPath></defs><g clip-path="url(#_clipPath_H5qc5hbnSIYtUe7wfwM4JBIDvs80LEn9)"><g/><g><g/><g><g><g/></g></g><g><g><g/></g></g></g><g><g><g/></g><g/><g><g><g><path d=" M -80 25 L 116 25 L 116 277.632 L -80 277.632 L -80 25 Z " fill="rgb(255,255,255)"/><path d=" M -43.114 313.026 C -47.755 312.955 -51.464 309.008 -51.405 304.203 L -51.405 -26.308 C -51.405 -31.173 -47.687 -35.132 -43.114 -35.132 L 54.656 -35.132 C 54.404 -33.487 54.278 -31.823 54.281 -30.158 C 54.281 -10.959 69.364 4.658 87.905 4.658 C 106.447 4.658 121.53 -10.959 121.53 -30.158 C 121.53 -31.789 121.414 -33.46 121.145 -35.132 L 218.915 -35.132 C 223.488 -35.132 227.206 -31.173 227.206 -26.308 L 227.206 304.203 C 227.265 309.008 223.556 312.955 218.915 313.026 L -43.114 313.026 Z " fill="rgb(182,220,254)"/><path d=" M 218.906 -30.158 C 220.817 -30.158 222.393 -28.447 222.393 -26.308 L 222.393 304.243 C 222.436 306.288 220.88 307.988 218.906 308.053 L -43.114 308.053 C -45.026 308.053 -46.601 306.342 -46.601 304.203 L -46.601 -26.308 C -46.601 -28.447 -45.026 -30.158 -43.114 -30.158 L 49.468 -30.158 C 49.468 -8.204 66.693 9.632 87.896 9.632 C 109.098 9.632 126.324 -8.204 126.324 -30.158 L 218.906 -30.158 Z  M 218.906 -40.105 L 114.959 -40.105 C 116.044 -36.992 116.717 -33.659 116.717 -30.158 C 116.717 -13.677 103.813 -0.316 87.896 -0.316 C 71.978 -0.316 59.075 -13.677 59.075 -30.158 C 59.075 -33.659 59.747 -37.002 60.843 -40.105 L -43.105 -40.105 C -50.367 -40.105 -56.208 -33.928 -56.208 -26.308 L -56.208 304.243 C -56.208 311.833 -50.348 318 -43.114 318 L 218.906 318 C 226.14 318 232 311.823 232 304.203 L 232 -26.308 C 232 -33.938 226.14 -40.105 218.906 -40.105 Z " fill="rgb(66,155,215)"/><path d=" M -27.388 -10.263 L 203.179 -10.263 L 203.179 288.158 L -27.388 288.158 L -27.388 -10.263 Z " fill="rgb(255,255,255)"/><path d=" M 87.896 -50.053 C 98.483 -50.053 107.11 -41.12 107.11 -30.158 C 107.11 -19.196 98.483 -10.263 87.896 -10.263 C 77.309 -10.263 68.682 -19.196 68.682 -30.158 C 68.682 -41.12 77.309 -50.053 87.896 -50.053 Z  M 87.896 -60 C 71.973 -59.995 59.07 -46.625 59.075 -30.138 C 59.08 -13.651 71.992 -0.29 87.915 -0.296 C 103.838 -0.301 116.741 -13.671 116.736 -30.158 C 116.731 -46.645 103.818 -60.005 87.896 -60 L 87.896 -60 Z " fill="rgb(71,136,199)"/><path d=" M 39.861 14.605 C 31.902 14.605 25.451 7.925 25.451 -0.316 L 25.451 -35.132 L 64.215 -35.132 L 64.599 -36.176 C 62.818 -28.75 64.435 -20.889 68.983 -14.858 C 73.532 -8.828 80.506 -5.299 87.896 -5.289 C 95.285 -5.299 102.26 -8.828 106.808 -14.858 C 111.357 -20.889 112.974 -28.75 111.193 -36.176 L 111.567 -35.132 L 150.341 -35.132 L 150.341 -0.316 C 150.341 7.925 143.889 14.605 135.931 14.605 L 39.861 14.605 Z " fill="rgb(152,204,253)"/><path d=" M 145.537 -30.158 L 145.537 -0.316 C 145.537 5.155 141.214 9.632 135.931 9.632 L 39.861 9.632 C 34.577 9.632 30.254 5.155 30.254 -0.316 L 30.254 -30.158 L 59.075 -30.158 C 59.075 -13.725 72.025 -0.316 87.896 -0.316 C 103.766 -0.316 116.717 -13.725 116.717 -30.158 L 145.537 -30.158 Z  M 87.896 -60 C 75.717 -59.977 64.875 -52.005 60.843 -40.105 L 20.647 -40.105 L 20.647 -0.316 C 20.647 10.672 29.25 19.579 39.861 19.579 L 135.931 19.579 C 146.542 19.579 155.144 10.672 155.144 -0.316 L 155.144 -40.105 L 114.949 -40.105 C 110.916 -52.005 100.075 -59.977 87.896 -60 Z  M 87.896 -10.263 C 77.309 -10.263 68.682 -19.196 68.682 -30.158 C 68.682 -41.12 77.309 -50.053 87.896 -50.053 C 98.483 -50.053 107.11 -41.12 107.11 -30.158 C 107.11 -19.196 98.483 -10.263 87.896 -10.263 Z " fill="rgb(66,155,215)"/><path d=" M 35.447 249 L 66.04 249 L 140.336 249" fill="none" vector-effect="non-scaling-stroke" stroke-width="7" stroke="rgb(158,236,167)" stroke-linejoin="miter" stroke-linecap="round" stroke-miterlimit="3"/><path d=" M 35.456 223.994 L 66.048 223.994 C 85.513 223.994 110.287 224.007 140.344 223.994" fill="none" vector-effect="non-scaling-stroke" stroke-width="7" stroke="rgb(66,155,215)" stroke-linejoin="miter" stroke-linecap="round" stroke-miterlimit="3"/><path d=" M 35.456 199 L 55.482 199 L 66.048 199 L 140.344 199" fill="rgb(74,134,232)" vector-effect="non-scaling-stroke" stroke-width="7" stroke="rgb(182,220,254)" stroke-linejoin="miter" stroke-linecap="round" stroke-miterlimit="3"/><path d=" M 152 141.195 L 127.973 119.556 L 128.022 136.934 L 94.47 137.05 C 86.466 137.078 80.075 131.322 80.054 124.066 L 79.969 93.656 L 70.382 93.689 L 70.468 124.1 C 70.502 136.047 81.314 145.784 94.495 145.739 L 128.047 145.622 L 128.096 163 L 152 141.195 Z  M 108.74 97.9 C 108.669 85.918 97.933 76.249 84.713 76.261 L 51.161 76.378 L 51.112 59 L 31.989 76.444 L 27.208 80.805 L 32.013 85.133 L 51.235 102.444 L 51.186 85.066 L 84.737 84.95 C 92.742 84.922 99.133 90.678 99.153 97.934 L 99.239 128.344 L 108.825 128.311 L 108.74 97.9 Z " fill="rgb(158,236,167)" vector-effect="non-scaling-stroke" stroke-width="3" stroke="rgb(66,155,215)" stroke-linejoin="miter" stroke-linecap="butt" stroke-miterlimit="4"/><g transform="matrix(1,0,0,1,112,28)"><text transform="matrix(1,0,0,1,4.5,87.975)" style="font-family:'Paytone One';font-weight:400;font-size:75px;font-style:normal;fill:#429BD7;stroke:none;">A</text></g><g transform="matrix(1,0,0,1,20.647,82)"><text transform="matrix(1,0,0,1,4.5,87.975)" style="font-family:'Paytone One';font-weight:400;font-size:75px;font-style:normal;fill:#429bd7;stroke:none;">S</text></g></g></g></g></g></g></svg>