<?xml version="1.0" standalone="no"?><!-- Generator: Gravit.io --><svg xmlns="http://www.w3.org/2000/svg" xmlns:xlink="http://www.w3.org/1999/xlink" style="isolation:isolate" viewBox="0 0 500 500" width="500" height="500"><defs><clipPath id="_clipPath_Rd36xBzsVjeZ4cGI2TkOAM5KNhDb5sqD"><rect width="500" height="500"/></clipPath></defs><g clip-path="url(#_clipPath_Rd36xBzsVjeZ4cGI2TkOAM5KNhDb5sqD)"><circle vector-effect="non-scaling-stroke" cx="250" cy="250" r="250" fill="rgb(255,255,255)"/><path d=" M 170.325 307 L 170.325 424.345 L 93 424.345 L 93 354.254 L 170.325 307 L 170.325 307 Z " fill="rgb(66,155,215)"/><path d=" M 401.775 161.422 L 401.775 424.912 L 337.499 424.912 L 216.599 277.684 L 280.353 238.156 L 280.353 238.156 L 324.45 292.01 L 324.45 209.592 L 401.775 161.422 L 401.775 161.422 Z " fill="rgb(66,155,215)"/><path d=" M 418.679 149.894 L 418.679 75.088 L 341.354 75.088 L 341.354 198.063 L 418.679 149.894 L 418.679 149.894 Z " fill="rgb(66,155,215)"/><path d=" M 297.257 226.628 L 173.173 75.088 L 108.413 75.088 L 108.413 343.293 L 185.738 296.039 L 185.738 296.039 L 185.738 207.99 L 233.502 266.156 L 297.257 226.628 L 297.257 226.628 Z " fill="rgb(66,155,215)"/><g><path d=" M 93 349.921 L 419.856 144 L 419.856 156.079 L 93 362 L 93 349.921 Z " fill="rgb(255,255,255)"/></g></g></svg>