<svg height="479pt" viewBox="0 0 479 479.95395" width="479pt" xmlns="http://www.w3.org/2000/svg"><path d="m467.628906 336.777344-96.730468-96.761719 96.785156-96.839844c16.917968-17.046875 16.917968-44.550781 0-61.597656l-68.800782-68.800781c-17.042968-16.925782-44.554687-16.925782-61.597656 0l-96.859375 96.726562-96.796875-96.726562c-17.03125-17.035156-44.652344-17.035156-61.679687 0l-68.722657 68.726562c-17 17.046875-17 44.636719 0 61.679688l96.730469 96.792968-96.785156 96.800782c-16.917969 17.046875-16.917969 44.550781 0 61.601562l68.800781 68.796875c17.039063 16.9375 44.558594 16.9375 61.597656 0l96.863282-96.796875 96.792968 96.796875c17.03125 17.039063 44.648438 17.039063 61.679688 0l68.722656-68.726562c16.992188-17.046875 16.992188-44.628907 0-61.671875zm-119.066406-312.746094c10.792969-10.714844 28.214844-10.714844 39.007812 0l68.800782 68.800781c10.726562 10.796875 10.726562 28.226563 0 39.023438l-96.742188 96.847656-107.921875-107.886719zm-216.269531 431.890625c-10.796875 10.71875-28.214844 10.71875-39.007813 0l-68.800781-68.800781c-10.726563-10.796875-10.726563-28.226563 0-39.023438l96.800781-96.863281 107.863282 107.941406zm324.046875-68.800781-68.710938 68.769531c-10.933594 10.421875-28.125 10.421875-39.058594 0l-324-324c-10.765624-10.792969-10.765624-28.265625 0-39.058594l68.753907-68.75c10.925781-10.433593 28.125-10.433593 39.054687 0l324 324c10.785156 10.808594 10.765625 28.308594-.039062 39.09375zm0 0"/><path d="m222.082031 138.320312c-3.121093-3.121093-8.1875-3.121093-11.308593 0l-72 72c-3.125 3.125-3.125 8.1875 0 11.3125l120 120c3.121093 3.125 8.1875 3.125 11.308593 0l72-72c3.125-3.125 3.125-8.1875 0-11.3125zm42.34375 186.34375-108.6875-108.6875 60.6875-60.6875 108.691407 108.6875zm0 0"/><path d="m320.425781 143.976562h16v16h-16zm0 0"/><path d="m352.425781 111.976562h16v16h-16zm0 0"/><path d="m384.425781 79.976562h16v16h-16zm0 0"/><path d="m288.425781 111.976562h16v16h-16zm0 0"/><path d="m320.425781 79.976562h16v16h-16zm0 0"/><path d="m352.425781 47.976562h16v16h-16zm0 0"/><path d="m352.425781 175.976562h16v16h-16zm0 0"/><path d="m384.425781 143.976562h16v16h-16zm0 0"/><path d="m416.425781 111.976562h16v16h-16zm0 0"/><path d="m80.425781 143.976562h16v16h-16zm0 0"/><path d="m112.425781 111.976562h16v16h-16zm0 0"/><path d="m144.425781 79.976562h16v16h-16zm0 0"/><path d="m48.425781 111.976562h16v16h-16zm0 0"/><path d="m80.425781 79.976562h16v16h-16zm0 0"/><path d="m112.425781 47.976562h16v16h-16zm0 0"/><path d="m112.425781 175.976562h16v16h-16zm0 0"/><path d="m144.425781 143.976562h16v16h-16zm0 0"/><path d="m176.425781 111.976562h16v16h-16zm0 0"/><path d="m320.425781 383.976562h16v16h-16zm0 0"/><path d="m352.425781 351.976562h16v16h-16zm0 0"/><path d="m384.425781 319.976562h16v16h-16zm0 0"/><path d="m288.425781 351.976562h16v16h-16zm0 0"/><path d="m320.425781 319.976562h16v16h-16zm0 0"/><path d="m352.425781 287.976562h16v16h-16zm0 0"/><path d="m352.425781 415.976562h16v16h-16zm0 0"/><path d="m384.425781 383.976562h16v16h-16zm0 0"/><path d="m416.425781 351.976562h16v16h-16zm0 0"/><path d="m80.425781 383.976562h16v16h-16zm0 0"/><path d="m112.425781 351.976562h16v16h-16zm0 0"/><path d="m144.425781 319.976562h16v16h-16zm0 0"/><path d="m48.425781 351.976562h16v16h-16zm0 0"/><path d="m80.425781 319.976562h16v16h-16zm0 0"/><path d="m112.425781 287.976562h16v16h-16zm0 0"/><path d="m112.425781 415.976562h16v16h-16zm0 0"/><path d="m144.425781 383.976562h16v16h-16zm0 0"/><path d="m176.425781 351.976562h16v16h-16zm0 0"/></svg>