<svg height="512pt" viewBox="-59 0 512 512" width="512pt" xmlns="http://www.w3.org/2000/svg"><path d="m386.875 44.484375h-83.191406v-5.300781c0-4.148438-3.363282-7.511719-7.511719-7.511719h-27.59375c-3.246094-15.960937-16.257813-31.671875-32.390625-31.671875h-77.988281c-16.136719 0-29.144531 15.710938-32.390625 31.671875h-27.597656c-4.148438 0-7.507813 3.363281-7.507813 7.511719v5.300781h-83.191406c-4.148438 0-7.511719 3.363281-7.511719 7.511719v95.769531c0 4.148437 3.363281 7.511719 7.511719 7.511719 4.148437 0 7.511719-3.363282 7.511719-7.511719v-88.257813h75.679687v17.03125h-40.78125c-4.148437 0-7.511719 3.363282-7.511719 7.511719v231.152344c0 4.148437 3.363282 7.511719 7.511719 7.511719s7.511719-3.363282 7.511719-7.511719v-223.640625h33.269531v11.445312c0 4.148438 3.363281 7.511719 7.511719 7.511719h197.957031c4.148437 0 7.511719-3.363281 7.511719-7.511719v-11.445312h33.269531v361.292969h-279.519531v-107.605469c0-4.148438-3.363282-7.511719-7.511719-7.511719s-7.511719 3.363281-7.511719 7.511719v115.117188c0 4.148437 3.363282 7.511718 7.511719 7.511718h294.542969c4.152344 0 7.511718-3.363281 7.511718-7.511718v-376.316407c0-4.148437-3.359374-7.511719-7.511718-7.511719h-40.78125v-17.03125h75.679687v203.710938c0 4.148438 3.363281 7.511719 7.511719 7.511719s7.511719-3.363281 7.511719-7.511719v-211.222656c0-4.148438-3.363281-7.511719-7.511719-7.511719zm-98.214844 51.011719h-182.933594v-48.800782h26.8125c4.148438 0 7.511719-3.363281 7.511719-7.511718 0-10.550782 8.800781-24.160156 18.148438-24.160156h77.988281c9.347656 0 18.148438 13.609374 18.148438 24.160156 0 4.148437 3.363281 7.511718 7.511718 7.511718h26.8125zm0 0"/><path d="m386.875 285.753906c-4.148438 0-7.511719 3.363282-7.511719 7.511719v203.710937h-364.339843v-319.167968c0-4.148438-3.363282-7.511719-7.511719-7.511719-4.148438 0-7.511719 3.363281-7.511719 7.511719v326.679687c0 4.148438 3.363281 7.511719 7.511719 7.511719h379.363281c4.148438 0 7.511719-3.363281 7.511719-7.511719v-211.222656c0-4.148437-3.363281-7.511719-7.511719-7.511719zm0 0"/><path d="m90.703125 315.203125c0 4.148437 3.363281 7.511719 7.511719 7.511719h197.957031c4.148437 0 7.511719-3.363282 7.511719-7.511719s-3.363282-7.511719-7.511719-7.511719h-197.957031c-4.148438 0-7.511719 3.363282-7.511719 7.511719zm0 0"/><path d="m98.214844 366.710938h197.957031c4.148437 0 7.511719-3.363282 7.511719-7.511719 0-4.148438-3.363282-7.511719-7.511719-7.511719h-197.957031c-4.148438 0-7.511719 3.363281-7.511719 7.511719 0 4.148437 3.363281 7.511719 7.511719 7.511719zm0 0"/><path d="m97.648438 410.707031h123.992187c4.152344 0 7.511719-3.363281 7.511719-7.511719 0-4.148437-3.359375-7.511718-7.511719-7.511718h-123.992187c-4.148438 0-7.511719 3.363281-7.511719 7.511718 0 4.148438 3.363281 7.511719 7.511719 7.511719zm0 0"/><path d="m223.402344 24.640625h-52.417969c-4.148437 0-7.511719 3.363281-7.511719 7.511719 0 4.148437 3.363282 7.511718 7.511719 7.511718h52.417969c4.148437 0 7.511718-3.363281 7.511718-7.511718 0-4.148438-3.363281-7.511719-7.511718-7.511719zm0 0"/><path d="m190.847656 271.472656 66.273438-66.1875c14.792968-14.773437 14.804687-38.824218.035156-53.617187-7.15625-7.167969-16.675781-11.117188-26.800781-11.121094-.011719 0-.019531 0-.027344 0-10.117187 0-19.632813 3.9375-26.789063 11.085937l-66.273437 66.1875c-7.167969 7.15625-11.117187 16.671876-11.121094 26.800782-.007812 10.125 3.929688 19.648437 11.085938 26.816406 7.390625 7.402344 17.105469 11.101562 26.824219 11.101562 9.699218 0 19.402343-3.6875 26.792968-11.066406zm23.304688-109.210937c4.324218-4.316407 10.066406-6.695313 16.175781-6.695313h.015625c6.113281.003906 11.863281 2.390625 16.183594 6.714844 4.320312 4.328125 6.695312 10.078125 6.691406 16.191406-.003906 6.113282-2.386719 11.859375-6.714844 16.179688l-27.820312 27.789062-32.351563-32.394531zm-66.292969 98.558593c-4.320313-4.324218-6.699219-10.074218-6.695313-16.191406.003907-6.113281 2.390626-11.859375 6.714844-16.179687l27.824219-27.785157 32.351563 32.394532-27.824219 27.785156c-4.320313 4.316406-10.066407 6.691406-16.175781 6.691406-.003907 0-.007813 0-.011719 0-6.117188-.003906-11.863281-2.386718-16.183594-6.714844zm0 0"/></svg>