<svg height="480pt" viewBox="0 0 480.00057 480" width="480pt" xmlns="http://www.w3.org/2000/svg"><path d="m456.550781 223.480469c-14.9375-15.097657-35.3125-23.558594-56.550781-23.480469-44.164062.046875-79.953125 35.835938-80 80v16h-8c-4.417969 0-8 3.582031-8 8v72c0 4.417969 3.582031 8 8 8h8v8c0 39.765625-32.234375 72-72 72s-72-32.234375-72-72h8c4.417969 0 8-3.582031 8-8v-32h24c17.671875 0 32-14.328125 32-32v-176c0-17.671875-14.328125-32-32-32h-24c-.046875-10.238281-6.585938-19.320312-16.28125-22.617188.140625-.449218.234375-.914062.28125-1.382812v-24h72c26.5-.027344 47.972656-21.5 48-48 0-8.835938-7.164062-16-16-16h-16c-8.835938 0-16 7.164062-16 16h-72c0-4.417969-3.582031-8-8-8s-8 3.582031-8 8h-96c-35.328125.039062-63.9609375 28.671875-64 64v392c0 4.417969 3.582031 8 8 8s8-3.582031 8-8v-392c.027344-26.5 21.5-47.972656 48-48h96v16h-96c-17.671875 0-32 14.328125-32 32v392c0 4.417969 3.582031 8 8 8s8-3.582031 8-8v-392c0-8.835938 7.164062-16 16-16h96v24c.046875.46875.140625.933594.28125 1.382812-9.695312 3.296876-16.234375 12.378907-16.28125 22.617188h-24c-17.671875 0-32 14.328125-32 32v176c0 17.671875 14.328125 32 32 32h24v32c0 4.417969 3.582031 8 8 8h8c0 48.601562 39.398438 88 88 88s88-39.398438 88-88v-8h8c4.417969 0 8-3.582031 8-8v-72c0-4.417969-3.582031-8-8-8h-8v-16c.039062-35.328125 28.671875-63.960938 64-64 35.324219.058594 63.941406 28.679688 64 64v144c0 4.417969 3.582031 8 8 8s8-3.582031 8-8v-144c.082031-21.222656-8.367188-41.585938-23.449219-56.519531zm-280.550781-191.480469h72c8.835938 0 16-7.164062 16-16h16c0 17.671875-14.328125 32-32 32h-72zm-8 72c4.417969 0 8 3.582031 8 8h-16c0-4.417969 3.582031-8 8-8zm-48 24h96c8.835938 0 16 7.164062 16 16v47.601562c-4.605469-.527343-9.128906-1.601562-13.480469-3.203124-8.492187-3.085938-17.484375-4.578126-26.519531-4.398438-9.042969-.179688-18.039062 1.316406-26.535156 4.417969-6.863282 2.546875-14.148438 3.761719-21.464844 3.582031-7.316406.183594-14.597656-1.03125-21.457031-3.582031-5.972657-2.171875-12.210938-3.542969-18.542969-4.082031v-40.335938c0-8.835938 7.164062-16 16-16zm-16 192v-119.601562c4.597656.53125 9.117188 1.605468 13.464844 3.203124 8.496094 3.09375 17.492187 4.585938 26.535156 4.398438 9.042969.179688 18.039062-1.316406 26.535156-4.414062 6.863282-2.550782 14.148438-3.765626 21.464844-3.585938 7.320312-.183594 14.609375 1.035156 21.472656 3.585938 5.972656 2.167968 12.203125 3.539062 18.535156 4.078124v112.335938c0 8.835938-7.164062 16-16 16h-96.007812c-8.835938 0-16-7.164062-16-16zm72 32v24h-16v-24zm160 16h-16v-56h16zm0 0"/></svg>