<?xml version="1.0" encoding="iso-8859-1"?>
<!-- Generator: Adobe Illustrator 19.0.0, SVG Export Plug-In . SVG Version: 6.00 Build 0)  -->
<svg version="1.1" id="Capa_1" xmlns="http://www.w3.org/2000/svg" xmlns:xlink="http://www.w3.org/1999/xlink" x="0px" y="0px"
	 viewBox="0 0 496 496" style="enable-background:new 0 0 496 496;" xml:space="preserve">
<g>
	<g>
		<path d="M191.432,184v16c9.136,0,16.568,7.432,16.568,16.568c0,4.36-1.768,8.632-4.856,11.728l11.32,11.296
			c6.056-6.064,9.536-14.456,9.536-23.024C224,198.608,209.392,184,191.432,184z"/>
	</g>
</g>
<g>
	<g>
		<polygon points="152,240 152,224 136,224 136,240 120,240 120,256 136,256 136,272 152,272 152,256 168,256 168,240 		"/>
	</g>
</g>
<g>
	<g>
		<path d="M432,184c-35.288,0-64,28.712-64,64c0,32.576,24.48,59.488,56,63.448V440c0,22.056-17.944,40-40,40
			c-22.056,0-40-17.944-40-40v-72c0-30.872-25.12-56-56-56s-56,25.128-56,56v72c0,22.056-17.944,40-40,40c-22.056,0-40-17.944-40-40
			v-56h16v-52.688l69.088-69.088c6.712-6.712,11.704-14.68,14.888-23.328c1.016-0.96,1.808-1.736,2.144-2.096
			C275.968,210.896,288,177.936,288,144V56c0-22.056-17.944-40-40-40h-8V0h-40c-13.232,0-24,10.768-24,24s10.768,24,24,24h40V32h8
			c13.232,0,24,10.768,24,24v88c0,22.424-5.928,44.344-16.736,63.368C250.776,176.12,223.904,152,191.432,152
			c-17.248,0-33.464,6.72-45.656,18.912L144,172.688l-1.776-1.776C130.032,158.72,113.816,152,96.568,152
			c-32.424,0-59.264,24.048-63.816,55.224C21.88,188.072,16,166.296,16,144V56c0-13.232,10.768-24,24-24h8v16h40
			c13.232,0,24-10.768,24-24S101.232,0,88,0H48v16h-8C17.944,16,0,33.944,0,56v88c0,34.12,12.152,67.208,34.68,93.688
			c0,0,0.576,0.56,1.384,1.328c3.192,8.608,8.16,16.528,14.84,23.208L120,331.312V384h16v56c0,30.872,25.12,56,56,56
			s56-25.128,56-56v-72c0-22.056,17.944-40,40-40c22.056,0,40,17.944,40,40v72c0,30.872,25.12,56,56,56s56-25.128,56-56V311.448
			c31.52-3.96,56-30.872,56-63.448C496,212.712,467.288,184,432,184z M224,32h-24c-4.408,0-8-3.584-8-8s3.592-8,8-8h24V32z M64,16
			h24c4.408,0,8,3.584,8,8s-3.592,8-8,8H64V16z M131.312,320l-69.088-69.088C53.048,241.744,48,229.536,48,216.568
			C48,189.792,69.792,168,96.568,168c12.976,0,25.168,5.056,34.344,14.224L144,195.312l13.088-13.088
			c9.176-9.168,21.368-14.224,34.344-14.224C218.208,168,240,189.792,240,216.568c0,12.968-5.048,25.168-14.224,34.344L156.688,320
			H131.312z M136,336h16v32h-16V336z M432,296c-26.472,0-48-21.528-48-48s21.528-48,48-48s48,21.528,48,48S458.472,296,432,296z"/>
	</g>
</g>
<g>
	<g>
		<path d="M432,216c-17.648,0-32,14.352-32,32s14.352,32,32,32s32-14.352,32-32S449.648,216,432,216z M432,264
			c-8.824,0-16-7.176-16-16c0-8.824,7.176-16,16-16c8.824,0,16,7.176,16,16C448,256.824,440.824,264,432,264z"/>
	</g>
</g>
<g>
</g>
<g>
</g>
<g>
</g>
<g>
</g>
<g>
</g>
<g>
</g>
<g>
</g>
<g>
</g>
<g>
</g>
<g>
</g>
<g>
</g>
<g>
</g>
<g>
</g>
<g>
</g>
<g>
</g>
</svg>
