<?xml version="1.0" encoding="iso-8859-1"?>
<!-- Generator: Adobe Illustrator 19.0.0, SVG Export Plug-In . SVG Version: 6.00 Build 0)  -->
<svg version="1.1" id="Capa_1" xmlns="http://www.w3.org/2000/svg" xmlns:xlink="http://www.w3.org/1999/xlink" x="0px" y="0px"
	 viewBox="0 0 496 496" style="enable-background:new 0 0 496 496;" xml:space="preserve">
<g>
	<g>
		<path d="M253.888,232l-21.472-10.736c-2.72-1.36-4.416-4.096-4.416-7.152V192h8c8.824,0,16-7.176,16-16v-32
			c0-8.824-7.176-16-16-16H92c-8.824,0-16,7.176-16,16v32c0,8.824,7.176,16,16,16h8v22.112c0,3.056-1.696,5.8-4.424,7.16L74.112,232
			C60.472,238.832,52,252.528,52,267.776V472c0,13.232,10.768,24,24,24h176c13.232,0,24-10.768,24-24V267.776
			C276,252.528,267.528,238.832,253.888,232z M92,176v-32h24v16h16v-16h24v16h16v-16h24v16h16v-16h24l0.016,32H92z M260,472
			c0,4.416-3.584,8-8,8H76c-4.416,0-8-3.584-8-8v-24h192V472z M260,432H68V288h192V432z M260,272H68v-4.224
			c0-9.144,5.088-17.368,13.264-21.464l21.472-10.736c8.176-4.088,13.264-12.32,13.264-21.464V192h96v22.112
			c0,9.152,5.088,17.376,13.264,21.472l21.472,10.736c8.176,4.088,13.264,12.312,13.264,21.456V272z"/>
	</g>
</g>
<g>
	<g>
		<path d="M188,336v-32h-48v32h-32v48h32v32h48v-32h32v-48H188z M204,368h-32v32h-16v-32h-32v-16h32v-32h16v32h32V368z"/>
	</g>
</g>
<g>
	<g>
		<path d="M444,16V0H300v16h48v62.704l-8,24V120h-40v16h32v216h16v32h16v104h16V384h16v-32h16V136h32v-16h-40v-17.296l-8-24V16H444z
			 M356,105.296l8-24V16h16v65.296l8,24V120h-32V105.296z M380,368h-16v-16h16V368z M396,152h-32v16h32v24h-16v16h16v24h-32v16h32
			v24h-16v16h16v48h-48V136h48V152z"/>
	</g>
</g>
<g>
</g>
<g>
</g>
<g>
</g>
<g>
</g>
<g>
</g>
<g>
</g>
<g>
</g>
<g>
</g>
<g>
</g>
<g>
</g>
<g>
</g>
<g>
</g>
<g>
</g>
<g>
</g>
<g>
</g>
</svg>
