<svg height="512pt" viewBox="-46 0 512 512" width="512pt" xmlns="http://www.w3.org/2000/svg"><path d="m229.738281 185.285156c-4.140625 0-7.5 3.355469-7.5 7.5v49.230469c0 9.289063-2.878906 18.171875-8.332031 25.691406l-25.472656 35.152344c-7.316406 10.097656-11.183594 22.027344-11.183594 34.496094v106.636719c0 4.144531 3.359375 7.5 7.5 7.5 4.144531 0 7.5-3.355469 7.5-7.5v-106.636719c0-9.285157 2.882812-18.171875 8.332031-25.691407l25.472657-35.152343c7.316406-10.097657 11.183593-22.027344 11.183593-34.496094v-49.230469c0-4.144531-3.355469-7.5-7.5-7.5zm0 0"/><path d="m52.488281 404.042969c-4.144531 0-7.5 3.359375-7.5 7.5v32.449219c0 4.144531 3.355469 7.5 7.5 7.5 4.140625 0 7.5-3.355469 7.5-7.5v-32.449219c0-4.140625-3.359375-7.5-7.5-7.5zm0 0"/><path d="m23.328125 267.707031c-5.449219-7.519531-8.328125-16.402343-8.328125-25.691406v-95.390625c0-10.003906 8.136719-18.144531 18.140625-18.144531s18.144531 8.140625 18.144531 18.144531v47.238281c0 4.140625 3.359375 7.5 7.5 7.5 24.144532 0 43.785156 19.640625 43.785156 43.785157v53.984374c0 4.140626 3.359376 7.5 7.5 7.5 4.144532 0 7.5-3.359374 7.5-7.5v-53.984374c0-29.875-22.398437-54.617188-51.285156-58.308594v-40.214844c0-14.882812-9.863281-27.503906-23.394531-31.675781v-54.25c0-9.261719 7.535156-16.792969 16.792969-16.792969 9.257812 0 16.792968 7.535156 16.792968 16.792969v89.828125c0 4.144531 3.359376 7.5 7.5 7.5 4.140626 0 7.5-3.355469 7.5-7.5v-118.734375c0-9.261719 7.535157-16.792969 16.792969-16.792969 9.257813 0 16.792969 7.535156 16.792969 16.792969v118.734375c0 4.140625 3.359375 7.5 7.5 7.5s7.5-3.359375 7.5-7.5v-89.015625c0-9.261719 7.535156-16.792969 16.792969-16.792969 9.261719 0 16.792969 7.535156 16.792969 16.792969v114.207031c0 4.144531 3.359374 7.5 7.5 7.5 4.140624 0 7.5-3.355469 7.5-7.5v-88.371094c0-9.261718 7.535156-16.792968 16.792968-16.792968 9.257813 0 16.792969 7.535156 16.792969 16.792968v66.402344c0 4.144531 3.359375 7.5 7.5 7.5 4.144531 0 7.5-3.355469 7.5-7.5v-66.402344c0-17.53125-14.261719-31.792968-31.792969-31.792968-6.167968 0-11.933594 1.765624-16.8125 4.816406-.601562-17.003906-14.625-30.652344-31.773437-30.652344-6.160157 0-11.917969 1.761719-16.792969 4.804688v-2.730469c.003906-17.53125-14.257812-31.792969-31.789062-31.792969s-31.792969 14.261719-31.792969 31.792969v1.917969c-4.878907-3.046876-10.632813-4.808594-16.792969-4.808594-17.53125 0-31.792969 14.265625-31.792969 31.792968v53.207032c-15.789062 2.523437-27.894531 16.234375-27.894531 32.71875v95.394531c0 12.46875 3.867188 24.394531 11.183594 34.492187l25.472656 35.152344c5.449219 7.523438 8.332031 16.40625 8.332031 25.691406v36.90625c0 4.140626 3.359375 7.5 7.5 7.5s7.5-3.359374 7.5-7.5v-36.90625c0-12.46875-3.867187-24.394531-11.183593-34.492187zm0 0"/><path d="m393.75 117.476562h-25.984375c-.832031-14.125-12.578125-25.363281-26.90625-25.363281s-26.078125 11.238281-26.90625 25.363281h-31.386719c-14.660156 0-26.585937 11.925782-26.585937 26.585938v175.289062c0 14.660157 11.925781 26.585938 26.585937 26.585938h48.089844v29.910156c.003906 66.804688-54.347656 121.152344-121.152344 121.152344h-52.25c-14.675781 0-27.339844-10.484375-30.414062-24.492188 7.375-3.195312 12.550781-10.535156 12.550781-19.070312v-34.640625c0-8.804687-5.519531-16.332031-13.269531-19.347656v-9.367188h26.652344c4.140624 0 7.5-3.355469 7.5-7.5v-24.875c0-4.140625-3.359376-7.5-7.5-7.5h-68.792969c-4.144531 0-7.5 3.359375-7.5 7.5v24.875c0 4.144531 3.355469 7.5 7.5 7.5h27.140625v9.367188c-7.753906 3.015625-13.273438 10.542969-13.273438 19.347656v34.640625c0 9.019531 5.789063 16.691406 13.835938 19.554688 3.464844 22.109374 22.898437 39.007812 45.570312 39.007812h52.253906c75.074219 0 136.152344-61.078125 136.152344-136.152344v-29.910156h48.09375c14.65625 0 26.585938-11.925781 26.585938-26.585938v-83.929687c0-4.140625-3.359375-7.5-7.5-7.5-4.144532 0-7.5 3.359375-7.5 7.5v54.636719h-134.359375v-106.46875h134.359375v17.652344c0 4.144531 3.355468 7.5 7.5 7.5 4.140625 0 7.5-3.355469 7.5-7.5v-57.179688c0-14.660156-11.929688-26.585938-26.589844-26.585938zm-302.269531 247.734376h53.792969v9.875h-53.792969zm27.136719 47.816406c3.183593 0 5.773437 2.589844 5.773437 5.769531v3.074219h-11.542969v-3.074219c0-3.179687 2.589844-5.769531 5.769532-5.769531zm5.773437 23.84375v4.34375h-11.542969v-4.34375zm-.714844 19.34375c-.984375 1.78125-2.878906 2.996094-5.058593 2.996094-2.175782 0-4.070313-1.214844-5.054688-2.996094zm217.183594-349.101563c6.050781 0 11.050781 4.523438 11.835937 10.359375h-23.675781c.785157-5.835937 5.789063-10.359375 11.839844-10.359375zm64.480469 197.945313v14.292968c0 6.390626-5.199219 11.585938-11.589844 11.585938h-111.183594c-6.390625 0-11.585937-5.195312-11.585937-11.585938v-14.292968zm-134.359375-136.46875v-24.527344c0-6.390625 5.199219-11.589844 11.585937-11.589844h111.1875c6.386719 0 11.585938 5.199219 11.585938 11.589844v24.527344zm0 0"/><path d="m304.851562 197.382812c-4.144531 0-7.5 3.355469-7.5 7.5v2.847657h-2.847656c-4.144531 0-7.5 3.355469-7.5 7.5 0 4.140625 3.355469 7.5 7.5 7.5h2.847656v2.84375c0 4.144531 3.355469 7.5 7.5 7.5 4.140626 0 7.5-3.355469 7.5-7.5v-2.84375h2.84375c4.144532 0 7.5-3.359375 7.5-7.5 0-4.144531-3.355468-7.5-7.5-7.5h-2.84375v-2.847657c0-4.144531-3.359374-7.5-7.5-7.5zm0 0"/><path d="m340.859375 212.382812h16.792969c4.144531 0 7.5-3.359374 7.5-7.5 0-4.144531-3.355469-7.5-7.5-7.5h-16.792969c-4.144531 0-7.5 3.355469-7.5 7.5 0 4.140626 3.355469 7.5 7.5 7.5zm0 0"/><path d="m340.859375 232.175781h41.386719c4.144531 0 7.5-3.355469 7.5-7.5 0-4.140625-3.355469-7.5-7.5-7.5h-41.386719c-4.144531 0-7.5 3.359375-7.5 7.5 0 4.144531 3.355469 7.5 7.5 7.5zm0 0"/><path d="m385.847656 243.769531h-91.34375c-4.140625 0-7.5 3.359375-7.5 7.5s3.359375 7.5 7.5 7.5h91.34375c4.140625 0 7.5-3.359375 7.5-7.5s-3.359375-7.5-7.5-7.5zm0 0"/><path d="m385.847656 264.214844h-91.34375c-4.140625 0-7.5 3.359375-7.5 7.5s3.359375 7.5 7.5 7.5h91.34375c4.140625 0 7.5-3.359375 7.5-7.5s-3.359375-7.5-7.5-7.5zm0 0"/></svg>