<?xml version="1.0" standalone="no"?>
<!DOCTYPE svg PUBLIC "-//W3C//DTD SVG 20010904//EN"
 "http://www.w3.org/TR/2001/REC-SVG-20010904/DTD/svg10.dtd">
<svg version="1.0" xmlns="http://www.w3.org/2000/svg"
 width="200.000000pt" height="200.000000pt" viewBox="0 0 200.000000 200.000000"
 preserveAspectRatio="xMidYMid meet">
<metadata>
Created by potrace 1.15, written by Peter Selinger 2001-2017
</metadata>
<g transform="translate(0.000000,200.000000) scale(0.100000,-0.100000)"
fill="#000000" stroke="none">
<path d="M922 1880 c-37 -23 -72 -75 -72 -107 0 -21 -5 -23 -53 -23 -80 0 -97
-22 -97 -126 0 -49 5 -85 12 -92 8 -8 67 -12 200 -12 l188 0 0 175 0 174 -30
16 c-41 21 -108 19 -148 -5z m122 -81 c32 -25 34 -64 4 -96 -29 -31 -71 -30
-97 3 -27 35 -26 59 4 89 30 30 54 31 89 4z"/>
<path d="M403 1654 c-18 -9 -43 -33 -55 -53 l-23 -36 0 -680 c0 -636 1 -682
18 -713 10 -18 32 -42 50 -52 30 -19 53 -20 430 -20 l397 0 0 40 0 40 -385 0
c-372 0 -386 1 -405 20 -20 20 -20 33 -20 683 l0 664 23 21 c20 19 35 22 99
22 84 0 105 12 94 55 -6 24 -8 25 -99 25 -64 0 -102 -5 -124 -16z"/>
<path d="M676 1208 c-22 -30 -21 -101 2 -126 11 -13 35 -22 70 -26 l52 -7 0
30 c0 28 -3 30 -45 37 -39 5 -45 10 -45 30 0 22 4 24 45 24 43 0 45 1 45 30 0
30 -1 30 -54 30 -45 0 -58 -4 -70 -22z"/>
<path d="M1221 1213 c-72 -14 -101 -66 -101 -183 0 -79 0 -80 25 -80 21 0 25
5 25 30 l0 30 60 0 60 0 0 30 0 30 -61 0 -61 0 6 28 c9 37 42 62 82 62 31 0
34 3 34 30 0 32 -8 34 -69 23z"/>
<path d="M614 655 c-13 -32 6 -35 262 -35 l254 0 0 25 0 25 -255 0 c-214 0
-257 -2 -261 -15z"/>
<path d="M610 420 c0 -19 7 -20 260 -20 253 0 260 1 260 20 0 19 -7 20 -260
20 -253 0 -260 -1 -260 -20z"/>
</g>
</svg>
