<?xml version="1.0" standalone="no"?>
<!DOCTYPE svg PUBLIC "-//W3C//DTD SVG 20010904//EN"
 "http://www.w3.org/TR/2001/REC-SVG-20010904/DTD/svg10.dtd">
<svg version="1.0" xmlns="http://www.w3.org/2000/svg"
 width="200.000000pt" height="200.000000pt" viewBox="0 0 200.000000 200.000000"
 preserveAspectRatio="xMidYMid meet">
<metadata>
Created by potrace 1.15, written by Peter Selinger 2001-2017
</metadata>
<g transform="translate(0.000000,200.000000) scale(0.100000,-0.100000)"
fill="#000000" stroke="none">
<path d="M460 1289 c-43 -17 -68 -49 -80 -101 -21 -86 9 -181 65 -206 14 -7
64 -12 110 -12 l85 0 0 49 0 48 -82 6 c-45 4 -86 11 -90 15 -14 14 -13 69 2
87 9 11 33 15 91 15 l78 0 6 44 c4 25 4 49 0 55 -8 14 -151 13 -185 0z"/>
<path d="M1437 1259 c-78 -18 -132 -63 -163 -134 -14 -31 -19 -76 -22 -202
l-4 -163 46 0 46 0 0 60 0 60 120 0 120 0 0 50 0 50 -121 0 -121 0 6 48 c13
90 63 132 165 140 l71 5 0 48 0 49 -52 -1 c-29 -1 -70 -5 -91 -10z"/>
<path d="M400 800 l0 -50 74 0 c40 0 94 -3 120 -6 l46 -7 0 57 0 56 -120 0
-120 0 0 -50z"/>
</g>
</svg>
