<?xml version="1.0" standalone="no"?>
<!DOCTYPE svg PUBLIC "-//W3C//DTD SVG 20010904//EN"
 "http://www.w3.org/TR/2001/REC-SVG-20010904/DTD/svg10.dtd">
<svg version="1.0" xmlns="http://www.w3.org/2000/svg"
 width="200.000000pt" height="200.000000pt" viewBox="0 0 200.000000 200.000000"
 preserveAspectRatio="xMidYMid meet">
<metadata>
Created by potrace 1.15, written by Peter Selinger 2001-2017
</metadata>
<g transform="translate(0.000000,200.000000) scale(0.100000,-0.100000)"
fill="#000000" stroke="none">
<path d="M681 1204 c-30 -38 -28 -98 4 -129 18 -19 35 -25 70 -25 43 0 45 1
45 29 0 28 -3 30 -42 33 -38 3 -43 6 -43 28 0 22 5 25 41 28 38 3 42 6 46 33
5 29 4 29 -48 29 -45 0 -56 -4 -73 -26z"/>
<path d="M1182 1197 c-42 -19 -62 -76 -62 -172 0 -84 0 -85 25 -85 22 0 25 4
25 35 l0 35 65 0 c63 0 65 1 65 25 0 24 -2 25 -65 25 -36 0 -65 4 -65 9 0 4 5
22 10 38 12 33 45 53 90 53 25 0 30 4 30 25 0 23 -3 25 -47 24 -27 0 -58 -5
-71 -12z"/>
<path d="M612 648 l3 -23 380 -2 c210 -2 386 1 394 6 8 5 11 16 8 25 -6 14
-48 16 -397 16 l-391 0 3 -22z"/>
<path d="M610 420 c0 -20 7 -20 395 -20 388 0 395 0 395 20 0 20 -7 20 -395
20 -388 0 -395 0 -395 -20z"/>
</g>
</svg>
